<?xml version="1.0" encoding="utf-8"?>
<!-- Generator: Adobe Illustrator 25.1.0, SVG Export Plug-In . SVG Version: 6.00 Build 0)  -->
<svg version="1.1" id="Capa_1" xmlns="http://www.w3.org/2000/svg" xmlns:xlink="http://www.w3.org/1999/xlink" x="0px" y="0px"
	 viewBox="0 0 57.2 57.2" style="enable-background:new 0 0 57.2 57.2;" xml:space="preserve">
<style type="text/css">
	.st0{fill:none;}
	.st1{fill:#0033A0;stroke:#0033A0;stroke-width:0.3;}
	.st2{fill:#0033A0;}
</style>
<g>
	<path id="Trazado_2507" class="st0" d="M0.1,57.2V0.1h57.1v57.1H0.1z"/>
	<g id="original-icon" transform="translate(8.917 8.025)">
		<path id="Trazado_2508" class="st1" d="M17.8,14.4H8c-0.5,0-0.9-0.5-0.9-1V8.3c0-0.5,0.4-1,0.9-1h9.8c0.5,0,0.9,0.5,0.9,1v5.1
			C18.7,13.9,18.3,14.3,17.8,14.4z"/>
		<path id="Trazado_2509" class="st1" d="M34.9,0.1H4.5c-2.5,0-4.5,2-4.5,4.5v25c0,2.5,2,4.5,4.5,4.5h13.4c0.5,0,0.9,0.4,0.9,0.9v0
			v3.7c0,1,0.6,1.9,1.5,2.3c0.4,0.2,0.8,0.3,1.2,0.3c0.7,0,1.3-0.2,1.8-0.7l7.2-6.2c0.2-0.1,0.4-0.2,0.6-0.2h3.8
			c2.5,0,4.5-2,4.5-4.5v-25C39.3,2.1,37.3,0.1,34.9,0.1L34.9,0.1z M37.5,29.5c0,1.5-1.2,2.7-2.7,2.7h-3.8c-0.6,0-1.3,0.2-1.8,0.7
			l-7.2,6.2c-0.3,0.2-0.7,0.3-1,0.1c-0.3-0.1-0.5-0.4-0.5-0.7v-3.7c0-1.5-1.2-2.7-2.7-2.7H4.5c-1.5,0-2.7-1.2-2.7-2.7v-25
			c0-1.5,1.2-2.7,2.7-2.7h30.3c1.5,0,2.7,1.2,2.7,2.7V29.5z"/>
		<rect id="Rectángulo_623" x="7.1" y="17.9" class="st1" width="11.2" height="1.8"/>
		<rect id="Rectángulo_624" x="7.1" y="21.5" class="st1" width="8.9" height="1.8"/>
		<rect id="Rectángulo_625" x="7.1" y="25.1" class="st1" width="11.2" height="1.8"/>
		<g id="ic-help" transform="translate(8.52 -2.418)">
			<circle id="Elipse_89" class="st2" cx="19.4" cy="27.3" r="2"/>
			<path id="Trazado_2529" class="st2" d="M19.4,22.7L19.4,22.7c-0.7,0-1.3-0.6-1.3-1.3c0,0,0,0,0,0c0-1.7,1.4-3.5,2.7-5.1
				c0.3-0.3,0.5-0.6,0.7-0.9c0.3-0.5,0.4-1.2,0.1-1.7c-0.4-0.8-1.2-1.4-2.1-1.4l0,0c-1.5,0-2.8,0.9-2.8,2c0,0.7-0.6,1.3-1.3,1.3
				c-0.7,0-1.3-0.6-1.3-1.3l0,0c0-2.6,2.4-4.6,5.4-4.6h0.1c1.9,0.1,3.6,1.2,4.4,2.9c0.8,1.4,0.6,3.2-0.3,4.4c-0.2,0.3-0.5,0.6-0.8,1
				c-0.8,1.1-2.1,2.6-2.1,3.5C20.7,22.2,20.1,22.7,19.4,22.7L19.4,22.7z"/>
		</g>
	</g>
</g>
</svg>
