<?xml version="1.0" encoding="utf-8"?>
<!-- Generator: Adobe Illustrator 25.1.0, SVG Export Plug-In . SVG Version: 6.00 Build 0)  -->
<svg version="1.1" id="Capa_1" xmlns="http://www.w3.org/2000/svg" xmlns:xlink="http://www.w3.org/1999/xlink" x="0px" y="0px"
	 viewBox="0 0 57.2 57.2" style="enable-background:new 0 0 57.2 57.2;" xml:space="preserve">
<style type="text/css">
	.st0{fill:none;}
	.st1{fill:#FFFFFF;stroke:#FFFFFF;stroke-width:0.3;}
</style>
<g>
	<path id="Trazado_2522" class="st0" d="M0.2,57.1v-57h57v57H0.2z"/>
	<g id="original-icon" transform="translate(4.937 5.76)">
		<path id="Trazado_2523" class="st1" d="M34.4,38.5H13l9.6-8.8c0.6-0.6,1.6-0.6,2.2,0L34.4,38.5z"/>
		<path id="Trazado_2524" class="st1" d="M45.1,20.6c0-0.9-0.3-1.7-1-2.3L41.8,16V8.1c0-1-0.7-2-1.6-2.3V3.9c0-0.9-0.7-1.6-1.6-1.6
			H8.9C8,2.3,7.2,3,7.2,3.9v1.8C6.2,6.1,5.6,7,5.6,8.1V16l-2.3,2.3c-0.6,0.6-1,1.5-1,2.3v0.6l0,0l0,0v18.1c0,2.3,1.8,4.1,4.1,4.1H41
			c2.3,0,4.1-1.8,4.1-4.1v-18l0,0l0,0V20.6z M43.4,39.3c0,0.4-0.1,0.8-0.3,1.1l-12-11.5L42,20.6c0.4-0.3,0.9-0.2,1.2,0.2
			c0.1,0.1,0.2,0.3,0.2,0.5V39.3z M38.5,3.9v1.6H8.9V3.9H38.5z M8.1,7.2h31.3c0.5,0,0.8,0.4,0.8,0.8l0,0v12L30,27.8l-3.5-3.3
			c-1.6-1.5-4.1-1.5-5.7,0l-3.5,3.3L7.2,20V8C7.2,7.6,7.6,7.2,8.1,7.2z M4.2,40.4c-0.2-0.3-0.3-0.7-0.3-1.1v-18
			c0-0.5,0.4-0.8,0.8-0.8c0.2,0,0.4,0.1,0.5,0.2L16.1,29L4.2,40.4z M6.4,41.8c-0.3,0-0.7-0.1-1-0.2l16.6-16c1-0.9,2.5-0.9,3.4,0
			l16.6,16c-0.3,0.1-0.7,0.2-1,0.2H6.4z"/>
		<path id="Trazado_2525" class="st1" d="M13.8,11.3h19.8V13H13.8V11.3z"/>
		<path id="Trazado_2526" class="st1" d="M13.8,14.6h19.8v1.6H13.8V14.6z"/>
		<path id="Trazado_2527" class="st1" d="M13.8,17.9h9v1.6h-9C13.8,19.5,13.8,17.9,13.8,17.9z"/>
		<path id="Trazado_2528" class="st1" d="M24.5,17.9h9.1v1.6h-9.1C24.5,19.5,24.5,17.9,24.5,17.9z"/>
	</g>
</g>
</svg>
