<?xml version="1.0" encoding="utf-8"?>
<!-- Generator: Adobe Illustrator 25.1.0, SVG Export Plug-In . SVG Version: 6.00 Build 0)  -->
<svg version="1.1" id="Capa_1" xmlns="http://www.w3.org/2000/svg" xmlns:xlink="http://www.w3.org/1999/xlink" x="0px" y="0px"
	 viewBox="0 0 57.2 57.2" style="enable-background:new 0 0 57.2 57.2;" xml:space="preserve">
<style type="text/css">
	.st0{fill:none;}
	.st1{fill:#FFFFFF;}
</style>
<g>
	<path id="Trazado_2502" class="st0" d="M-0.1,57.3V-0.1h57.4v57.4C57.3,57.3-0.1,57.3-0.1,57.3z"/>
	<g id="original-icon" transform="translate(6.656 12.203)">
		<path id="Trazado_2503" class="st1" d="M22,15.5l2.7-2.7l-3.6-3.6l-2.7,3.6l2.7,3.6L22,15.5z"/>
		<path id="Trazado_2504" class="st1" d="M41.7,18.8l0.7,1.8c0.3,0.6,0.8,1.1,1.5,1.2l0.6,0.1c0.5,0,0.8,0.4,0.8,0.9
			c0,0.4-0.3,0.7-0.6,0.8L43.6,24c-0.5,0.2-0.9,0.5-1.1,1l-0.7,1.7c-0.3,0.5-0.9,0.7-1.4,0.4c-0.2-0.1-0.3-0.2-0.4-0.4L39.1,25
			c-0.2-0.5-0.6-0.8-1.1-1l-1.1-0.4c-0.5-0.1-0.7-0.6-0.6-1.1c0.1-0.3,0.4-0.6,0.8-0.6l0.6-0.1c0.7-0.1,1.2-0.5,1.5-1.2l0.7-1.8
			c0.2-0.5,0.9-0.7,1.4-0.5C41.5,18.4,41.6,18.6,41.7,18.8L41.7,18.8z"/>
		<path id="Trazado_2505" class="st1" d="M32.8,26.9l0.7,1.8c0.3,0.6,0.8,1.1,1.5,1.2l0.6,0.1c0.5,0,0.8,0.4,0.8,0.9
			c0,0.4-0.3,0.7-0.6,0.8L34.6,32c-0.5,0.2-0.9,0.5-1.1,1l-0.7,1.7c-0.3,0.5-0.9,0.7-1.4,0.4c-0.2-0.1-0.3-0.2-0.4-0.4L30.2,33
			c-0.2-0.5-0.6-0.8-1.1-1L28,31.7c-0.5-0.1-0.7-0.6-0.6-1.1c0.1-0.3,0.4-0.6,0.8-0.6l0.6-0.1c0.7-0.1,1.2-0.5,1.5-1.2l0.7-1.8
			c0.2-0.5,0.9-0.7,1.4-0.5C32.5,26.5,32.7,26.7,32.8,26.9L32.8,26.9z"/>
		<path id="Trazado_2506" class="st1" d="M34.5,9.3l-3.4-1.2l1.5-3.2c0.7-1.4,0.1-3-1.3-3.7c-0.7-0.4-1.6-0.4-2.4,0l-3.2,1.5
			l-1.2-3.3c-0.4-1.1-1.4-1.8-2.6-1.8l0,0c-1.2,0-2.2,0.7-2.6,1.8l-1.2,3.4L15,1.3c-1.4-0.7-3-0.1-3.7,1.3c-0.4,0.7-0.4,1.6,0,2.4
			l1.5,3.2L9.5,9.3C8,9.9,7.3,11.4,7.8,12.9c0.3,0.8,0.9,1.4,1.7,1.7l3.4,1.2l0,0l0.3,0.1l-14,13.9c-0.7,0.7-0.7,1.8,0,2.5l0,0
			l2.5,2.5c0.7,0.7,1.8,0.7,2.5,0l13.8-14l0.1,0.3l1.2,3.3c0.4,1.1,1.4,1.8,2.6,1.8l0,0c1.2,0,2.2-0.7,2.6-1.8l1.2-3.4l3.2,1.5
			c1.4,0.7,3,0.1,3.7-1.3c0.4-0.7,0.4-1.6,0-2.4l-1.5-3.2l3.3-1.2c1.4-0.5,2.2-2.1,1.7-3.5C35.9,10.2,35.3,9.6,34.5,9.3L34.5,9.3z
			 M21.1,15.2l-2.4-2.4l2.6-2.6l2.5,2.4L21.1,15.2z M17.4,14l2.4,2.4l-14,14L3.5,28L17.4,14z M2.9,33.4L0.4,31l1.8-1.8l2.4,2.4
			L2.9,33.4z M33.9,12.8L30.6,14c-0.9,0.3-1.4,1.4-1.1,2.3c0,0.1,0,0.1,0.1,0.2l1.5,3.2c0.2,0.5,0,1.1-0.5,1.3
			c-0.3,0.1-0.6,0.1-0.8,0l-3.2-1.5c-0.9-0.4-2,0-2.4,0.9c0,0.1,0,0.1-0.1,0.2l-1.2,3.3c-0.2,0.5-0.7,0.8-1.2,0.6
			c-0.3-0.1-0.5-0.3-0.6-0.6l-1.2-3.3c-0.1-0.4-0.4-0.7-0.7-0.9l5.8-5.8c0.7-0.7,0.7-1.8,0-2.5l-2.5-2.5c-0.7-0.7-1.8-0.7-2.5,0
			l-5.8,5.8c-0.2-0.3-0.5-0.5-0.9-0.7L10,12.8c-0.5-0.2-0.8-0.7-0.6-1.2c0.1-0.3,0.3-0.5,0.6-0.6l3.3-1.2c0.9-0.3,1.4-1.4,1.1-2.3
			c0-0.1,0-0.1-0.1-0.2l-1.5-3.2c-0.2-0.5,0-1.1,0.5-1.3c0.3-0.1,0.6-0.1,0.8,0l3.2,1.5c0.9,0.4,2,0,2.4-0.9c0-0.1,0-0.1,0.1-0.2
			L21.1,0c0.1-0.4,0.5-0.6,0.9-0.6l0,0c0.4,0,0.8,0.3,0.9,0.6l1.2,3.3c0.3,0.9,1.4,1.4,2.3,1.1c0.1,0,0.1,0,0.2-0.1l3.2-1.5
			c0.5-0.2,1.1,0,1.3,0.5c0.1,0.3,0.1,0.6,0,0.8l-1.5,3.2c-0.4,0.9,0,2,0.9,2.4c0.1,0,0.1,0,0.2,0.1L34,11c0.5,0.2,0.8,0.7,0.6,1.2
			C34.4,12.5,34.2,12.7,33.9,12.8L33.9,12.8z"/>
	</g>
</g>
</svg>
