<?xml version="1.0" encoding="utf-8"?>
<!-- Generator: Adobe Illustrator 25.1.0, SVG Export Plug-In . SVG Version: 6.00 Build 0)  -->
<svg version="1.1" id="Capa_1" xmlns="http://www.w3.org/2000/svg" xmlns:xlink="http://www.w3.org/1999/xlink" x="0px" y="0px"
	 viewBox="0 0 57.2 57.2" style="enable-background:new 0 0 57.2 57.2;" xml:space="preserve">
<style type="text/css">
	.st0{fill:none;}
	.st1{fill:#FFFFFF;stroke:#FFFFFF;stroke-width:0.3;}
</style>
<g>
	<path id="Trazado_2507" class="st0" d="M0.1,57.2V0.1h57.1v57.1C57.2,57.2,0.1,57.2,0.1,57.2z"/>
	<g id="original-icon" transform="translate(8.917 8.025)">
		<path id="Trazado_2508" class="st1" d="M20.5,14.4H9.2c-0.6,0-1-0.5-1-1V8.3c0-0.6,0.5-1,1-1l0,0h11.3c0.6,0,1,0.5,1,1l0,0v5.1
			C21.5,13.9,21,14.4,20.5,14.4L20.5,14.4z"/>
		<path id="Trazado_2509" class="st1" d="M34.9,0.1H4.5C2,0.1,0,2.1,0,4.6v25c0,2.5,2,4.5,4.5,4.5h13.4c0.5,0,0.9,0.4,0.9,0.9l0,0
			v3.7c0,1,0.6,1.9,1.5,2.3c0.4,0.2,0.8,0.3,1.2,0.3c0.7,0,1.3-0.2,1.8-0.7l7.2-6.2c0.2-0.1,0.4-0.2,0.6-0.2h3.8
			c2.5,0,4.5-2,4.5-4.5v-25C39.3,2.1,37.3,0.1,34.9,0.1L34.9,0.1z M37.5,29.5c0,1.5-1.2,2.7-2.7,2.7H31c-0.6,0-1.3,0.2-1.8,0.7
			L22,39.1c-0.3,0.2-0.7,0.3-1,0.1c-0.3-0.1-0.5-0.4-0.5-0.7v-3.7c0-1.5-1.2-2.7-2.7-2.7H4.5c-1.5,0-2.7-1.2-2.7-2.7v-25
			c0-1.5,1.2-2.7,2.7-2.7h30.3c1.5,0,2.7,1.2,2.7,2.7V29.5z"/>
		<rect id="Rectángulo_623" x="8.1" y="17.9" class="st1" width="23.2" height="1.8"/>
		<rect id="Rectángulo_624" x="8.1" y="21.5" class="st1" width="16.9" height="1.8"/>
		<rect id="Rectángulo_625" x="8.1" y="25.1" class="st1" width="23.2" height="1.8"/>
	</g>
</g>
</svg>
