<?xml version="1.0" encoding="utf-8"?>
<!-- Generator: Adobe Illustrator 25.1.0, SVG Export Plug-In . SVG Version: 6.00 Build 0)  -->
<svg version="1.1" id="Capa_1" xmlns="http://www.w3.org/2000/svg" xmlns:xlink="http://www.w3.org/1999/xlink" x="0px" y="0px"
	 viewBox="0 0 57.2 57.2" style="enable-background:new 0 0 57.2 57.2;" xml:space="preserve">
<style type="text/css">
	.st0{fill:none;}
	.st1{fill:#FFFFFF;}
</style>
<g>
	<path id="Trazado_2491" class="st0" d="M0.1,57.1v-57h57v57H0.1z"/>
	<g id="original-icon" transform="translate(10.208 5.568)">
		<path id="Trazado_2492" class="st1" d="M37.1,15.9v-1.8c0-1-0.8-1.8-1.8-1.8H24.7v-1.8h1.8c1,0,1.8-0.8,1.8-1.8l0,0v-7
			c0-1-0.8-1.8-1.8-1.8h-16c-1,0-1.8,0.8-1.8,1.8v7.1c0,1,0.8,1.8,1.8,1.8l0,0h1.8v1.8H1.5c-1,0-1.8,0.8-1.8,1.8V16
			c0,1,0.8,1.8,1.8,1.8v26.7h-1.8v1.8h37.4v-1.8h-1.8V17.7C36.3,17.7,37.1,16.9,37.1,15.9z M10.4,1.7h16v7.1h-16V1.7z M14,10.6h8.9
			v1.8H14V10.6z M1.5,14.2h33.8V16H1.5V14.2z M3.3,42.7H14v1.8H3.3V42.7z M21.1,44.4h-5.3V33.7h5.3V44.4z M22.9,44.4v-1.8h10.7v1.8
			H22.9z M33.6,40.9H22.9v-7.1c0-1-0.8-1.8-1.8-1.8h-5.3c-1,0-1.8,0.8-1.8,1.8v7.1H3.3V17.7h30.3V40.9z"/>
		<path id="Trazado_2493" class="st1" d="M18.4,37.3h1.8v3.6h-1.8V37.3z"/>
		<path id="Trazado_2494" class="st1" d="M31.8,32h-7.1v7.1h7.1V32z M30,37.3h-3.6v-3.6H30V37.3z"/>
		<path id="Trazado_2495" class="st1" d="M12.2,39.1V32H5.1v7.1H12.2z M6.8,33.7h3.6v3.6H6.8V33.7z"/>
		<path id="Trazado_2496" class="st1" d="M31.8,21.3h-7.1v7.1h7.1V21.3z M30,26.6h-3.6V23H30V26.6z"/>
		<path id="Trazado_2497" class="st1" d="M12.2,21.3H5.1v7.1h7.1V21.3z M10.4,26.6H6.8V23h3.6V26.6z"/>
		<path id="Trazado_2498" class="st1" d="M22,21.3h-7.1v7.1H22V21.3z M20.2,26.6h-3.6V23h3.6V26.6z"/>
		<path id="Trazado_2499" class="st1" d="M14.9,4.4H22v1.8h-7.1V4.4z"/>
		<path id="Trazado_2500" class="st1" d="M22.9,42.7h10.7v1.8H22.9V42.7z"/>
		<path id="Trazado_2501" class="st1" d="M3.3,42.7H14v1.8H3.3V42.7z"/>
	</g>
</g>
</svg>
