<?xml version="1.0" encoding="utf-8"?>
<!-- Generator: Adobe Illustrator 25.1.0, SVG Export Plug-In . SVG Version: 6.00 Build 0)  -->
<svg version="1.1" id="Capa_1" xmlns="http://www.w3.org/2000/svg" xmlns:xlink="http://www.w3.org/1999/xlink" x="0px" y="0px"
	 viewBox="0 0 57.2 57.2" style="enable-background:new 0 0 57.2 57.2;" xml:space="preserve">
<style type="text/css">
	.st0{fill:none;}
	.st1{fill:#FFFFFF;stroke:#FFFFFF;stroke-width:0.3;}
	.st2{fill-rule:evenodd;clip-rule:evenodd;fill:#FFFFFF;stroke:#FFFFFF;stroke-width:0.3;}
</style>
<g>
	<path id="Trazado_2519" class="st0" d="M0.2,57.1V0.2h56.9v56.9H0.2z"/>
	<g id="original-icon" transform="translate(5.022 4.945)">
		<path id="Trazado_2520" class="st1" d="M3.4,44l3-10.9C1.1,23.4,4.6,11.3,14.2,6S36,4.2,41.3,13.8s1.8,21.8-7.8,27.1
			c-5.9,3.2-13,3.3-19,0.2L3.4,44z M14.7,39.4l0.3,0.1c8.9,4.9,20.1,1.7,25-7.3s1.7-20.1-7.3-25s-20.1-1.7-25,7.3
			c-3.1,5.6-3,12.5,0.2,18l0.2,0.3l-2.4,8.9L14.7,39.4z M23.7,40.3c-3,0-5.9-0.9-8.5-2.4l-0.3-0.2L8,39.4l1.9-6.8l-0.2-0.3
			c-4.8-7.8-2.3-18,5.5-22.8s18-2.3,22.8,5.5s2.3,18-5.5,22.8C29.8,39.5,26.8,40.3,23.7,40.3L23.7,40.3z M16.1,36.5
			c7.3,4.4,16.7,2,21.1-5.2s2-16.7-5.2-21.1s-16.7-2-21.1,5.2c-3,4.9-2.9,11.1,0.1,16l0.6,0.9l-1.3,4.9l5-1.3L16.1,36.5z"/>
		<path id="Trazado_2521" class="st2" d="M18.9,15.3c-0.4-0.8-0.7-0.8-1.1-0.8c-0.3,0-0.6,0-0.9,0c-0.5,0-1,0.2-1.3,0.6
			c-1.1,1.1-1.7,2.5-1.7,4.1c0.2,1.8,0.8,3.6,2,5c0.2,0.3,3.4,5.4,8.3,7.3c4.1,1.6,4.9,1.3,5.8,1.2s2.9-1.2,3.3-2.3
			c0.3-0.7,0.4-1.5,0.3-2.3c-0.1-0.2-0.4-0.3-0.9-0.6s-2.9-1.4-3.3-1.6s-0.8-0.2-1.1,0.2s-1.3,1.6-1.5,1.9s-0.6,0.4-1.1,0.1
			c-1.4-0.6-2.8-1.4-3.9-2.4c-1.1-1-2-2.1-2.7-3.4c-0.3-0.5,0-0.7,0.2-1c0.2-0.2,0.5-0.6,0.7-0.9c0.2-0.2,0.4-0.5,0.5-0.8
			c0.1-0.3,0.1-0.6,0-0.9C20.3,18.7,19.3,16.3,18.9,15.3L18.9,15.3z"/>
	</g>
</g>
</svg>
