<?xml version="1.0" encoding="utf-8"?>
<!-- Generator: Adobe Illustrator 19.2.1, SVG Export Plug-In . SVG Version: 6.00 Build 0)  -->
<svg version="1.1" id="Capa_1" xmlns="http://www.w3.org/2000/svg" xmlns:xlink="http://www.w3.org/1999/xlink" x="0px" y="0px"
	 viewBox="0 0 47 47" style="enable-background:new 0 0 47 47;" xml:space="preserve">
<style type="text/css">
	.st0{fill:#F0F0F0;}
	.st1{fill:#338AF3;}
	.st2{fill:#FFDA44;}
</style>
<title>@3xArgentina</title>
<g id="DESK---Seguros-SURA---Corporativo">
	<g id="_x3E_Nuestra-Compañía" transform="translate(-1123.000000, -1803.000000)">
		<g id="BANDERAS" transform="translate(693.000000, 1235.000000)">
			<g id="Group-31">
				<g id="Argentina" transform="translate(451.000000, 587.000000)">
					<g id="argentina" transform="translate(6.000000, 6.000000)">
						<circle id="Oval_1_" class="st0" cx="-3.5" cy="-1.5" r="23.5"/>
						<g id="Group" transform="translate(2.250000, 0.000000)">
							<path id="Path" class="st1" d="M-5.8-25c-9.3,0-17.4,5.4-21.2,13.3h42.3C11.6-19.6,3.6-25-5.8-25z"/>
							<path id="Path_1_" class="st1" d="M-5.8,22c9.3,0,17.4-5.4,21.2-13.3h-42.3C-23.1,16.6-15.1,22-5.8,22z"/>
						</g>
						<polygon id="Path_2_" class="st2" points="3.5,-1.5 0.7,-0.1 2.2,2.6 -0.9,2 -1.3,5.2 -3.5,2.9 -5.7,5.2 -6.1,2 -9.2,2.6 
							-7.7,-0.2 -10.5,-1.5 -7.7,-2.9 -9.2,-5.6 -6.1,-5 -5.7,-8.2 -3.5,-5.9 -1.3,-8.2 -0.9,-5 2.2,-5.6 0.7,-2.8 						"/>
					</g>
				</g>
			</g>
		</g>
	</g>
</g>
</svg>
