<?xml version="1.0" encoding="utf-8"?>
<!-- Generator: Adobe Illustrator 19.2.1, SVG Export Plug-In . SVG Version: 6.00 Build 0)  -->
<svg version="1.1" id="Capa_1" xmlns="http://www.w3.org/2000/svg" xmlns:xlink="http://www.w3.org/1999/xlink" x="0px" y="0px"
	 viewBox="0 0 47 47" style="enable-background:new 0 0 47 47;" xml:space="preserve">
<style type="text/css">
	.st0{fill:#6DA544;}
	.st1{fill:#FFDA44;}
	.st2{fill:#F0F0F0;}
	.st3{fill:#0052B4;}
</style>
<title>@3xBrasil</title>
<g id="DESK---Seguros-SURA---Corporativo">
	<g id="_x3E_Nuestra-Compañía" transform="translate(-1184.000000, -1522.000000)">
		<g id="BANDERAS" transform="translate(693.000000, 1235.000000)">
			<g id="Group-31">
				<g id="Brasil" transform="translate(512.000000, 306.000000)">
					<g id="brazil" transform="translate(6.000000, 6.000000)">
						<circle id="Oval_1_" class="st0" cx="-3.5" cy="-1.5" r="23.5"/>
						<polygon id="Path" class="st1" points="-3.5,-15.8 15.9,-1.5 -3.5,12.8 -22.9,-1.5 						"/>
						<circle id="Oval_2_" class="st2" cx="-3.5" cy="-1.5" r="8.2"/>
						<g id="Group" transform="translate(14.940000, 14.940000)">
							<path id="Path_1_" class="st3" d="M-22.5-17c-1.4,0-2.8,0.2-4.1,0.6c0.1,4.5,3.7,8.1,8.2,8.1c2.8,0,5.2-1.4,6.7-3.5
								C-14.3-14.9-18.2-17-22.5-17z"/>
							<path id="Path_2_" class="st3" d="M-10.4-14.9c0.1-0.5,0.2-1,0.2-1.6c0-4.5-3.7-8.2-8.2-8.2c-3.4,0-6.3,2-7.5,4.9
								c1.1-0.2,2.3-0.3,3.4-0.3C-17.8-20-13.5-18-10.4-14.9z"/>
						</g>
					</g>
				</g>
			</g>
		</g>
	</g>
</g>
</svg>
