<?xml version="1.0" encoding="utf-8"?>
<!-- Generator: Adobe Illustrator 19.2.1, SVG Export Plug-In . SVG Version: 6.00 Build 0)  -->
<svg version="1.1" id="Capa_1" xmlns="http://www.w3.org/2000/svg" xmlns:xlink="http://www.w3.org/1999/xlink" x="0px" y="0px"
	 viewBox="0 0 47 47" style="enable-background:new 0 0 47 47;" xml:space="preserve">
<style type="text/css">
	.st0{fill:#F0F0F0;}
	.st1{fill:#D80027;}
	.st2{fill:#0052B4;}
</style>
<title>@3xChile</title>
<g id="DESK---Seguros-SURA---Corporativo">
	<g id="_x3E_Nuestra-Compañía" transform="translate(-1035.000000, -1687.000000)">
		<g id="BANDERAS" transform="translate(693.000000, 1235.000000)">
			<g id="Group-31">
				<g id="Chile" transform="translate(363.000000, 471.000000)">
					<g id="chile" transform="translate(6.000000, 6.000000)">
						<circle id="Oval_1_" class="st0" cx="-3.5" cy="-1.5" r="23.5"/>
						<path id="Path" class="st1" d="M20-1.5C20,11.5,9.5,22-3.5,22S-27,11.5-27-1.5s23.5,0,23.5,0S14.3-1.5,20-1.5z"/>
						<path id="Path_1_" class="st2" d="M-27-1.5C-27-14.5-16.5-25-3.5-25c0,8.9,0,23.5,0,23.5S-18.8-1.5-27-1.5z"/>
						<polygon id="Path_2_" class="st0" points="-13,-16.8 -11.5,-12.1 -6.6,-12.1 -10.5,-9.2 -9,-4.6 -13,-7.5 -17,-4.6 
							-15.5,-9.2 -19.5,-12.1 -14.5,-12.1 						"/>
					</g>
				</g>
			</g>
		</g>
	</g>
</g>
</svg>
