<?xml version="1.0" encoding="utf-8"?>
<!-- Generator: Adobe Illustrator 19.2.1, SVG Export Plug-In . SVG Version: 6.00 Build 0)  -->
<svg version="1.1" id="Capa_1" xmlns="http://www.w3.org/2000/svg" xmlns:xlink="http://www.w3.org/1999/xlink" x="0px" y="0px"
	 viewBox="0 0 47 47" style="enable-background:new 0 0 47 47;" xml:space="preserve">
<style type="text/css">
	.st0{fill:#F0F0F0;}
	.st1{fill:#0052B4;}
	.st2{fill:#FFDA44;}
	.st3{fill:#6DA544;}
</style>
<title>@3xEl salvador</title>
<g id="DESK---Seguros-SURA---Corporativo">
	<g id="_x3E_Nuestra-Compañía" transform="translate(-736.000000, -1315.000000)">
		<g id="BANDERAS" transform="translate(693.000000, 1235.000000)">
			<g id="Group-31">
				<g id="El-salvador" transform="translate(64.000000, 99.000000)">
					<g transform="translate(6.000000, 6.000000)">
						<circle id="Oval_1_" class="st0" cx="-3.5" cy="-1.5" r="23.5"/>
						<g id="Group" transform="translate(2.250000, 0.000000)">
							<path id="Path" class="st1" d="M-5.8-25c-9.3,0-17.4,5.4-21.2,13.3h42.3C11.6-19.6,3.6-25-5.8-25z"/>
							<path id="Path_1_" class="st1" d="M-5.8,22c9.3,0,17.4-5.4,21.2-13.3h-42.3C-23.1,16.6-15.1,22-5.8,22z"/>
						</g>
						<polygon id="Path_2_" class="st2" points="-8.2,-0.5 -3.5,-8.7 1.2,-0.5 						"/>
						<polygon id="Path_3_" class="st3" points="2.6,2.2 -3.5,5.3 -9.6,2.2 -9.6,-1.9 2.6,-1.9 						"/>
						<path id="Path_4_" class="st2" d="M2.3-8.3L0.1-6.1C1-5.2,1.6-3.9,1.6-2.5c0,2.8-2.3,5.1-5.1,5.1s-5.1-2.3-5.1-5.1
							c0-1.4,0.6-2.7,1.5-3.6l-2.2-2.2c-1.5,1.5-2.4,3.5-2.4,5.8c0,4.5,3.7,8.2,8.2,8.2S4.7,2,4.7-2.5C4.7-4.8,3.8-6.8,2.3-8.3z"/>
					</g>
				</g>
			</g>
		</g>
	</g>
</g>
</svg>
