<?xml version="1.0" encoding="utf-8"?>
<!-- Generator: Adobe Illustrator 19.2.1, SVG Export Plug-In . SVG Version: 6.00 Build 0)  -->
<svg version="1.1" id="Capa_1" xmlns="http://www.w3.org/2000/svg" xmlns:xlink="http://www.w3.org/1999/xlink" x="0px" y="0px"
	 viewBox="0 0 47 47" style="enable-background:new 0 0 47 47;" xml:space="preserve">
<style type="text/css">
	.st0{fill:#F0F0F0;}
	.st1{fill:#D80027;}
	.st2{fill:#6DA544;}
	.st3{fill:#FF9811;}
</style>
<title>@3xMexico</title>
<g id="DESK---Seguros-SURA---Corporativo">
	<g id="_x3E_Nuestra-Compañía" transform="translate(-672.000000, -1222.000000)">
		<g id="BANDERAS" transform="translate(693.000000, 1235.000000)">
			<g id="Group-31">
				<g id="Mexico" transform="translate(0.000000, 6.000000)">
					<g id="mexico" transform="translate(6.000000, 6.000000)">
						<circle id="Oval_1_" class="st0" cx="-3.5" cy="-1.5" r="23.5"/>
						<path id="Path" class="st1" d="M20-1.5c0-9.3-5.4-17.4-13.3-21.2v42.3C14.6,15.9,20,7.8,20-1.5z"/>
						<g id="Group" transform="translate(0.000000, 2.250000)">
							<path id="Path_1_" class="st2" d="M-27-3.8c0,9.3,5.4,17.4,13.3,21.2v-42.3C-21.6-21.1-27-13.1-27-3.8z"/>
							<path id="Path_2_" class="st2" d="M-9.6-3.8c0,3.4,2.7,6.1,6.1,6.1s6.1-2.7,6.1-6.1v-2H-9.6V-3.8z"/>
						</g>
						<path id="Path_3_" class="st3" d="M4.7-5.6h-6.1c0-1.1-0.9-2-2-2s-2,0.9-2,2h-6.1c0,1.1,1,2,2.1,2h-0.1c0,1.1,0.9,2,2,2
							c0,1.1,0.9,2,2,2h4.1c1.1,0,2-0.9,2-2c1.1,0,2-0.9,2-2H2.6C3.7-3.5,4.7-4.5,4.7-5.6z"/>
					</g>
				</g>
			</g>
		</g>
	</g>
</g>
</svg>
