<?xml version="1.0" encoding="utf-8"?>
<!-- Generator: Adobe Illustrator 19.2.1, SVG Export Plug-In . SVG Version: 6.00 Build 0)  -->
<svg version="1.1" id="Capa_1" xmlns="http://www.w3.org/2000/svg" xmlns:xlink="http://www.w3.org/1999/xlink" x="0px" y="0px"
	 viewBox="0 0 47 47" style="enable-background:new 0 0 47 47;" xml:space="preserve">
<style type="text/css">
	.st0{fill:#F0F0F0;}
	.st1{fill:#0052B4;}
	.st2{fill:#D80027;}
</style>
<title>@3xPanamá</title>
<g id="DESK---Seguros-SURA---Corporativo">
	<g id="_x3E_Nuestra-Compañía" transform="translate(-837.000000, -1359.000000)">
		<g id="BANDERAS" transform="translate(693.000000, 1235.000000)">
			<g id="Group-31">
				<g id="Panamá" transform="translate(165.000000, 143.000000)">
					<g id="panama" transform="translate(6.000000, 6.000000)">
						<circle id="Oval_1_" class="st0" cx="-3.5" cy="-1.5" r="23.5"/>
						<path id="Path" class="st1" d="M-27-1.5C-27,11.5-16.5,22-3.5,22c0-8.9,0-23.5,0-23.5S-18.8-1.5-27-1.5z"/>
						<path id="Path_1_" class="st2" d="M-3.5-25C9.5-25,20-14.5,20-1.5c-8.9,0-23.5,0-23.5,0S-3.5-16.8-3.5-25z"/>
						<polygon id="Path_2_" class="st1" points="-13,-16.8 -11.5,-12.1 -6.6,-12.1 -10.5,-9.2 -9,-4.6 -13,-7.5 -17,-4.6 
							-15.5,-9.2 -19.5,-12.1 -14.5,-12.1 						"/>
						<polygon id="Path_3_" class="st2" points="6,1.6 7.5,6.2 12.5,6.2 8.5,9.1 10,13.8 6,10.9 2,13.8 3.5,9.1 -0.4,6.2 4.5,6.2 
													"/>
					</g>
				</g>
			</g>
		</g>
	</g>
</g>
</svg>
