<?xml version="1.0" encoding="utf-8"?>
<!-- Generator: Adobe Illustrator 19.2.1, SVG Export Plug-In . SVG Version: 6.00 Build 0)  -->
<svg version="1.1" id="Capa_1" xmlns="http://www.w3.org/2000/svg" xmlns:xlink="http://www.w3.org/1999/xlink" x="0px" y="0px"
	 viewBox="0 0 47 47" style="enable-background:new 0 0 47 47;" xml:space="preserve">
<style type="text/css">
	.st0{fill:#F0F0F0;}
	.st1{fill:#D80027;}
	.st2{fill:#0052B4;}
	.st3{fill:#496E2D;}
</style>
<title>Group 16</title>
<g id="DESK---Seguros-SURA---Corporativo">
	<g id="_x3E_Nuestra-Compañía" transform="translate(-863.000000, -1216.000000)">
		<g id="BANDERAS" transform="translate(693.000000, 1235.000000)">
			<g id="Group-31">
				<g id="Group-16" transform="translate(191.000000, 0.000000)">
					<g id="dominican-republic" transform="translate(6.000000, 6.000000)">
						<circle id="Oval_1_" class="st0" cx="-3.5" cy="-1.5" r="23.5"/>
						<path id="Path" class="st1" d="M-26.2,4.6C-24,12.7-17.7,19-9.6,21.2V4.6H-26.2z"/>
						<path id="Path_1_" class="st2" d="M-9.6-24.2C-17.7-22-24-15.7-26.2-7.6h16.6V-24.2L-9.6-24.2z"/>
						<path id="Path_2_" class="st1" d="M19.2-7.6C17-15.7,10.7-22,2.6-24.2v16.6H19.2L19.2-7.6z"/>
						<path id="Path_3_" class="st2" d="M2.6,21.2C10.7,19,17,12.7,19.2,4.6H2.6V21.2z"/>
						<path id="Path_4_" class="st3" d="M2.6-1.5c0,3.4-2.7,6.1-6.1,6.1c-3.4,0-6.1-2.7-6.1-6.1s6.1-6.1,6.1-6.1S2.6-4.9,2.6-1.5z"
							/>
						<path id="Path_5_" class="st2" d="M-9.6-1.5c0-3.4,2.7-6.1,6.1-6.1c3.4,0,6.1,2.7,6.1,6.1"/>
						<path id="Path_6_" class="st1" d="M-6.9-4.6v3.8c0,1.9,1.5,3.4,3.4,3.4c1.9,0,3.4-1.5,3.4-3.4v-3.8H-6.9z"/>
					</g>
				</g>
			</g>
		</g>
	</g>
</g>
</svg>
