<?xml version="1.0" encoding="utf-8"?>
<!-- Generator: Adobe Illustrator 19.2.1, SVG Export Plug-In . SVG Version: 6.00 Build 0)  -->
<svg version="1.1" id="Capa_1" xmlns="http://www.w3.org/2000/svg" xmlns:xlink="http://www.w3.org/1999/xlink" x="0px" y="0px"
	 viewBox="0 0 47 47" style="enable-background:new 0 0 47 47;" xml:space="preserve">
<style type="text/css">
	.st0{fill:#F0F0F0;}
	.st1{fill:#338AF3;}
	.st2{fill:#FFDA44;}
</style>
<title>@3xUruguay</title>
<g id="uruguay-" transform="translate(6.000000, 6.000000)">
	<circle id="Oval_1_" class="st0" cx="17.5" cy="17.5" r="23.5"/>
	<path id="SVGCleanerId_0" class="st1" d="M17.5,11.4h22.7c-0.6-2.2-1.5-4.2-2.6-6.1H17.5V11.4z"/>
	<g id="Group" transform="translate(3.330000, 0.000000)">
		<path id="Path" class="st1" d="M-0.5,35.9h29.3c2.1-1.7,4-3.8,5.4-6.1H-5.9C-4.4,32.1-2.6,34.2-0.5,35.9z"/>
		<path id="Path_1_" class="st1" d="M14.2-6c0,2,0,5.1,0,5.1h14.6C24.8-4.1,19.7-6,14.2-6z"/>
	</g>
	<path id="SVGCleanerId_0_1_" class="st1" d="M17.5,11.4h22.7c-0.6-2.2-1.5-4.2-2.6-6.1H17.5V11.4z"/>
	<path id="Path_2_" class="st1" d="M-6,17.5c0,2.1,0.3,4.2,0.8,6.1h45.4c0.5-2,0.8-4,0.8-6.1H-6z"/>
	<polygon id="Path_3_" class="st2" points="14.4,7.8 11.6,9.1 13.1,11.9 10,11.3 9.6,14.4 7.4,12.1 5.2,14.4 4.8,11.3 1.7,11.9 
		3.3,9.1 0.4,7.8 3.3,6.4 1.7,3.6 4.8,4.2 5.2,1.1 7.4,3.4 9.6,1.1 10,4.2 13.1,3.6 11.6,6.4 	"/>
</g>
</svg>
