<?xml version="1.0" encoding="utf-8"?>
<!-- Generator: Adobe Illustrator 19.2.1, SVG Export Plug-In . SVG Version: 6.00 Build 0)  -->
<svg version="1.1" id="Capa_1" focusable="false" xmlns="http://www.w3.org/2000/svg" xmlns:xlink="http://www.w3.org/1999/xlink"
	 x="0px" y="0px" viewBox="0 0 512 512" style="enable-background:new 0 0 512 512;" xml:space="preserve">
<style type="text/css">
	.st0{fill:#CCD6EC;}
	.st1{fill:#0033A0;}
</style>
<g>
	<polygon class="st0" points="125,485.9 125,72.9 407,72.9 407,489.9 	"/>
	<path class="st1" d="M160,148v-40c0-6.6,5.4-12,12-12h40c6.6,0,12,5.4,12,12v40c0,6.6-5.4,12-12,12h-40
		C165.4,160,160,154.6,160,148z M300,160h40c6.6,0,12-5.4,12-12v-40c0-6.6-5.4-12-12-12h-40c-6.6,0-12,5.4-12,12v40
		C288,154.6,293.4,160,300,160z M172,256h40c6.6,0,12-5.4,12-12v-40c0-6.6-5.4-12-12-12h-40c-6.6,0-12,5.4-12,12v40
		C160,250.6,165.4,256,172,256z M300,256h40c6.6,0,12-5.4,12-12v-40c0-6.6-5.4-12-12-12h-40c-6.6,0-12,5.4-12,12v40
		C288,250.6,293.4,256,300,256z M224,340v-40c0-6.6-5.4-12-12-12h-40c-6.6,0-12,5.4-12,12v40c0,6.6,5.4,12,12,12h40
		C218.6,352,224,346.6,224,340z M300,352h40c6.6,0,12-5.4,12-12v-40c0-6.6-5.4-12-12-12h-40c-6.6,0-12,5.4-12,12v40
		C288,346.6,293.4,352,300,352z M480,476v36H32v-36c0-6.6,5.4-12,12-12h19.5V24c0-13.3,10.7-24,24-24h337c13.3,0,24,10.7,24,24v440
		H468C474.6,464,480,469.4,480,476z M111.5,463H224v-67c0-6.6,5.4-12,12-12h40c6.6,0,12,5.4,12,12v67h112.5V49L112,48L111.5,463z"/>
</g>
</svg>
