<?xml version="1.0" encoding="utf-8"?>
<!-- Generator: Adobe Illustrator 19.2.1, SVG Export Plug-In . SVG Version: 6.00 Build 0)  -->
<svg version="1.1" id="Capa_1" xmlns="http://www.w3.org/2000/svg" xmlns:xlink="http://www.w3.org/1999/xlink" x="0px" y="0px"
	 viewBox="0 0 500 500" style="enable-background:new 0 0 500 500;" xml:space="preserve">
<style type="text/css">
	.st0{fill:#CCD6EC;}
	.st1{fill:#0033A0;}
</style>
<g>
	<path class="st0" d="M334,260.7h-61.2V200c0-12.6-10.2-22.9-22.9-22.9s-22.9,10.2-22.9,22.9v60.7h-59.4
		c-12.6,0-22.9,10.2-22.9,22.9c0,12.6,10.2,22.9,22.9,22.9h59.4v60.7c0,12.6,10.2,22.9,22.9,22.9s22.9-10.2,22.9-22.9v-60.7H334
		c12.6,0,22.9-10.2,22.9-22.9C356.9,271,346.7,260.7,334,260.7z"/>
	<path class="st1" d="M452.7,96.6H349.3V73.4c0-25.2-20.5-45.8-45.8-45.8H200.3c-25.2,0-45.8,20.5-45.8,45.8v23.2H47.3
		c-25.2,0-45.8,20.5-45.8,45.8v284.2c0,25.2,20.5,45.8,45.8,45.8h405.4c25.2,0,45.8-20.5,45.8-45.8V142.4
		C498.4,117.2,477.9,96.6,452.7,96.6z M200.4,73.4l103.1,0c0,0,0.1,0,0.1,0l0,23.2H200.3L200.4,73.4
		C200.3,73.5,200.4,73.4,200.4,73.4z M452.7,426.6l-405.3,0c0,0,0,0-0.1,0c0,0,0,0,0,0l0-284.1c0,0,0.1-0.1,0-0.1h130.1h148.9
		l126.2,0c0,0,0.1,0,0.1,0V426.6C452.7,426.5,452.6,426.6,452.7,426.6z"/>
</g>
</svg>
