<?xml version="1.0" encoding="utf-8"?>
<!-- Generator: Adobe Illustrator 19.2.1, SVG Export Plug-In . SVG Version: 6.00 Build 0)  -->
<svg version="1.1" id="Capa_1" xmlns="http://www.w3.org/2000/svg" xmlns:xlink="http://www.w3.org/1999/xlink" x="0px" y="0px"
	 viewBox="0 0 500 500" style="enable-background:new 0 0 500 500;" xml:space="preserve">
<style type="text/css">
	.st0{fill:#CCD6EC;}
	.st1{fill:#0033A0;}
</style>
<g>
	<path class="st0" d="M476,444.9h-20H83H63v-268c0-11,9-20,20-20h373c11,0,20,9,20,20V444.9z"/>
	<g>
		<path class="st1" d="M452.7,96.6H349.3V73.4c0-25.2-20.5-45.8-45.8-45.8H200.3c-25.2,0-45.8,20.5-45.8,45.8v23.2H47.3
			c-25.2,0-45.8,20.5-45.8,45.8v284.2c0,25.2,20.5,45.8,45.8,45.8h405.4c25.2,0,45.8-20.5,45.8-45.8V142.4
			C498.4,117.2,477.9,96.6,452.7,96.6z M200.4,73.4h103.1h0.1v23.2H200.3L200.4,73.4C200.3,73.5,200.4,73.4,200.4,73.4z
			 M452.7,426.6H47.4c0,0,0,0-0.1,0l0,0V142.5c0,0,0.1-0.1,0-0.1h130.1h148.9h126.2h0.1v284.2C452.7,426.5,452.6,426.6,452.7,426.6z
			"/>
	</g>
</g>
</svg>
